<svg version="1.1" id="Layer_1" xmlns="http://www.w3.org/2000/svg" xmlns:xlink="http://www.w3.org/1999/xlink" x="0px" y="0px"
	 width="100%" viewBox="0 0 960 311" enable-background="new 0 0 960 311" xml:space="preserve">
<path fill="#000000" opacity="1.000000" stroke="none" 
	d="
M648.000000,312.000000 
	C432.000000,312.000000 216.500000,312.000000 1.000000,312.000000 
	C1.000000,208.333328 1.000000,104.666664 1.000000,1.000000 
	C321.000000,1.000000 641.000000,1.000000 961.000000,1.000000 
	C961.000000,104.666664 961.000000,208.333328 961.000000,312.000000 
	C856.833313,312.000000 752.666687,312.000000 648.000000,312.000000 
M57.899681,181.681152 
	C58.883770,185.626617 59.604195,189.660690 60.895412,193.502945 
	C68.392517,215.811951 81.747871,233.738190 101.232323,247.066254 
	C116.095566,257.233246 132.537109,263.513550 150.374023,264.740631 
	C160.800568,265.457916 171.563797,264.596832 181.887054,262.793945 
	C201.951859,259.289764 219.364487,249.614258 233.772659,235.421509 
	C244.409927,224.943298 252.629242,212.440399 257.946106,198.269684 
	C266.075867,176.602081 267.485138,154.600845 261.069427,132.268585 
	C255.515015,112.934387 245.302261,96.643692 230.518677,82.767990 
	C213.799530,67.075592 193.796051,58.717094 171.736526,56.313881 
	C149.199524,53.858646 127.390511,57.845306 107.339478,69.801819 
	C91.108849,79.480209 78.518707,92.430450 69.166016,108.601196 
	C56.112011,131.171478 53.339417,155.526749 57.899681,181.681152 
M516.004578,162.470474 
	C523.796082,141.188416 531.587524,119.906364 539.542725,98.177032 
	C527.992676,98.177032 517.366638,98.177032 506.401489,98.177032 
	C499.796600,120.602928 493.175812,143.082855 486.129150,167.008804 
	C478.967224,143.184097 472.185852,120.625351 465.414124,98.098610 
	C454.343506,98.098610 443.533630,98.098610 432.608459,98.098610 
	C432.823059,99.318832 432.851349,100.485817 433.235901,101.520393 
	C446.141785,136.243088 459.053436,170.963821 472.140015,205.618439 
	C472.572723,206.764297 474.804626,207.831558 476.242035,207.892441 
	C482.225098,208.145950 488.233551,207.807098 494.215973,208.068436 
	C498.118378,208.238892 499.858002,206.982788 501.201813,203.053421 
	C505.777039,189.675354 510.977631,176.511139 516.004578,162.470474 
M803.194153,186.040054 
	C793.096191,189.489532 783.524780,184.469177 784.614441,175.955414 
	C802.864136,175.955414 821.157654,175.955414 840.804504,175.955414 
	C840.521362,169.652908 840.967346,163.582993 839.849243,157.816391 
	C836.969238,142.963516 828.243958,132.767334 813.901489,127.358841 
	C805.888672,124.337227 797.640564,124.789177 789.441406,125.079124 
	C776.793335,125.526405 766.433167,130.915970 758.992615,141.238617 
	C750.687378,152.760803 748.859070,165.904434 752.337341,179.221191 
	C755.466064,191.199783 762.907776,200.309128 775.012329,205.135864 
	C785.420471,209.286102 795.912659,209.823456 806.837402,208.073853 
	C820.539062,205.879517 830.464905,198.771729 837.168396,186.438370 
	C829.156006,184.201645 821.506836,181.975784 813.792358,180.005875 
	C812.571777,179.694199 810.806396,180.177338 809.730469,180.923767 
	C807.655579,182.363251 805.893127,184.253189 803.194153,186.040054 
M672.579895,141.085526 
	C668.822205,135.013641 663.640503,130.141693 656.956177,128.142456 
	C637.810181,122.415962 619.161011,123.744186 601.443665,133.771622 
	C598.893738,135.214767 598.659973,136.385757 599.897278,138.810196 
	C602.118774,143.163055 603.862671,147.765915 606.208435,152.043747 
	C606.683105,152.909424 609.215027,153.465134 610.325806,153.009995 
	C613.622253,151.659302 616.548279,149.382919 619.864807,148.107269 
	C625.967834,145.759857 632.268616,144.271805 638.900146,146.027390 
	C643.682800,147.293518 646.424133,151.790268 645.269897,157.116745 
	C634.596313,154.109894 623.975159,154.226883 613.464478,157.979965 
	C598.782837,163.222412 590.350952,179.405731 597.720032,194.403534 
	C604.981934,209.183502 623.159363,212.613907 636.882446,206.880035 
	C641.738770,204.850937 645.953003,201.285034 650.870056,198.160400 
	C653.267639,203.377258 656.288086,208.761551 663.328064,208.942520 
	C669.478210,209.100647 675.639832,208.813766 681.868286,208.722412 
	C681.868286,198.969284 681.868286,190.672043 681.868286,182.294586 
	C678.184143,181.832703 676.769592,179.820633 676.948120,176.200546 
	C677.169250,171.715988 676.958557,167.211655 677.007141,162.716675 
	C677.085693,155.446121 676.385254,148.338226 672.579895,141.085526 
M535.000000,146.517014 
	C535.000000,150.610489 535.000000,154.703964 535.000000,159.140167 
	C538.665222,159.140167 541.605652,159.140167 545.083618,159.140167 
	C545.083618,175.549088 545.083618,191.610138 545.083618,207.619537 
	C555.355957,207.619537 565.075684,207.619537 575.158875,207.619537 
	C575.158875,191.305450 575.158875,175.368637 575.158875,158.873749 
	C581.246277,158.873749 586.972412,158.873749 592.594543,158.873749 
	C592.594543,150.915314 592.594543,143.529297 592.594543,135.791260 
	C586.580566,135.791260 580.971558,135.791260 575.162048,135.791260 
	C575.096863,134.471680 575.021118,133.498978 575.004822,132.525269 
	C574.762085,118.025085 578.794189,117.148834 589.904602,120.484634 
	C592.479248,121.257652 593.526123,120.747467 594.032471,118.137474 
	C595.086426,112.704765 596.081604,107.235565 597.617615,101.930984 
	C598.527710,98.787918 597.347961,97.493294 594.725891,97.064407 
	C587.818176,95.934509 580.907227,94.625504 573.943298,94.079788 
	C559.569885,92.953445 548.712830,103.057831 546.109497,116.444244 
	C544.897278,122.677315 544.995178,129.165161 544.457031,136.079971 
	C541.452820,136.079971 538.393982,136.079971 535.000000,136.079971 
	C535.000000,139.590118 535.000000,142.561996 535.000000,146.517014 
M849.000366,147.500153 
	C849.000366,167.562500 849.000366,187.624832 849.000366,207.608093 
	C859.738220,207.608093 869.778564,207.608093 880.004395,207.608093 
	C880.004395,193.416306 880.004395,179.612793 880.004395,165.809296 
	C880.004395,157.956879 881.049683,156.211792 888.969421,154.035980 
	C894.077393,152.632629 899.434326,152.135376 904.616821,151.242889 
	C904.616821,142.602966 904.616821,133.888107 904.616821,125.371880 
	C892.542542,123.125839 884.204102,128.601196 876.867493,138.601700 
	C876.867493,133.608490 876.867493,130.018417 876.867493,126.310928 
	C867.437378,126.310928 858.394043,126.310928 849.000366,126.310928 
	C849.000366,133.244781 849.000366,139.872513 849.000366,147.500153 
M722.000000,202.369049 
	C722.000000,190.209641 721.999878,178.050247 722.000061,165.890839 
	C722.000183,157.914474 723.712158,155.726303 731.761047,154.026596 
	C736.982727,152.923920 742.262878,152.098145 747.661865,151.122101 
	C747.661865,142.720276 747.661865,134.001572 747.661865,125.570694 
	C735.420227,122.531921 727.395020,128.811401 719.714478,138.250443 
	C719.714478,133.377045 719.714478,129.797867 719.714478,126.249283 
	C710.328796,126.249283 701.399902,126.249283 692.300415,126.249283 
	C692.300415,153.539505 692.300415,180.579010 692.300415,207.807465 
	C702.195618,207.807465 711.791138,207.807465 721.718933,207.807465 
	C721.818665,206.221054 721.909302,204.779449 722.000000,202.369049 
M348.000000,247.500000 
	C348.000000,173.175613 348.000031,98.851212 347.999878,24.526823 
	C347.999878,23.360298 347.942383,22.190624 348.007965,21.027851 
	C348.190491,17.791807 346.696350,17.476599 344.241272,18.504112 
	C344.241272,107.062248 344.241272,195.334534 344.241272,283.550293 
	C347.657867,284.834320 348.047791,283.114594 348.029633,280.495941 
	C347.955688,269.831085 347.999573,259.165375 348.000000,247.500000 
z"/>
<path fill="#5A4AE3" opacity="1.000000" stroke="none" 
	d="
M57.670746,181.309662 
	C53.339417,155.526749 56.112011,131.171478 69.166016,108.601196 
	C78.518707,92.430450 91.108849,79.480209 107.339478,69.801819 
	C127.390511,57.845306 149.199524,53.858646 171.736526,56.313881 
	C193.796051,58.717094 213.799530,67.075592 230.518677,82.767990 
	C245.302261,96.643692 255.515015,112.934387 261.069427,132.268585 
	C267.485138,154.600845 266.075867,176.602081 257.946106,198.269684 
	C252.629242,212.440399 244.409927,224.943298 233.772659,235.421509 
	C219.364487,249.614258 201.951859,259.289764 181.887054,262.793945 
	C171.563797,264.596832 160.800568,265.457916 150.374023,264.740631 
	C132.537109,263.513550 116.095566,257.233246 101.232323,247.066254 
	C81.747871,233.738190 68.392517,215.811951 60.895412,193.502945 
	C59.604195,189.660690 58.883770,185.626617 57.670746,181.309662 
M249.119507,145.277283 
	C247.288589,128.784271 240.205444,114.307442 229.456116,102.274307 
	C208.180862,78.458138 181.578369,66.855927 149.078751,70.960449 
	C125.637451,73.920959 106.245911,84.211540 91.119080,102.382874 
	C73.800171,123.187469 66.918282,146.955780 70.976883,173.820602 
	C75.577805,204.275162 92.308121,226.383194 118.855186,240.767303 
	C136.843689,250.514069 156.293945,253.165375 176.848755,249.186462 
	C200.084534,244.688599 218.641159,233.023804 232.587692,214.528702 
	C247.805206,194.348129 253.676590,171.296997 249.119507,145.277283 
z"/>
<path fill="#5A4AE3" opacity="1.000000" stroke="none" 
	d="
M515.972046,162.867874 
	C510.977631,176.511139 505.777039,189.675354 501.201813,203.053421 
	C499.858002,206.982788 498.118378,208.238892 494.215973,208.068436 
	C488.233551,207.807098 482.225098,208.145950 476.242035,207.892441 
	C474.804626,207.831558 472.572723,206.764297 472.140015,205.618439 
	C459.053436,170.963821 446.141785,136.243088 433.235901,101.520393 
	C432.851349,100.485817 432.823059,99.318832 432.608459,98.098610 
	C443.533630,98.098610 454.343506,98.098610 465.414124,98.098610 
	C472.185852,120.625351 478.967224,143.184097 486.129150,167.008804 
	C493.175812,143.082855 499.796600,120.602928 506.401489,98.177032 
	C517.366638,98.177032 527.992676,98.177032 539.542725,98.177032 
	C531.587524,119.906364 523.796082,141.188416 515.972046,162.867874 
z"/>
<path fill="#5A4AE3" opacity="1.000000" stroke="none" 
	d="
M803.597656,185.998199 
	C805.893127,184.253189 807.655579,182.363251 809.730469,180.923767 
	C810.806396,180.177338 812.571777,179.694199 813.792358,180.005875 
	C821.506836,181.975784 829.156006,184.201645 837.168396,186.438370 
	C830.464905,198.771729 820.539062,205.879517 806.837402,208.073853 
	C795.912659,209.823456 785.420471,209.286102 775.012329,205.135864 
	C762.907776,200.309128 755.466064,191.199783 752.337341,179.221191 
	C748.859070,165.904434 750.687378,152.760803 758.992615,141.238617 
	C766.433167,130.915970 776.793335,125.526405 789.441406,125.079124 
	C797.640564,124.789177 805.888672,124.337227 813.901489,127.358841 
	C828.243958,132.767334 836.969238,142.963516 839.849243,157.816391 
	C840.967346,163.582993 840.521362,169.652908 840.804504,175.955414 
	C821.157654,175.955414 802.864136,175.955414 784.614441,175.955414 
	C783.524780,184.469177 793.096191,189.489532 803.597656,185.998199 
M787.028748,149.463516 
	C785.506165,152.013412 783.983643,154.563309 782.138672,157.653244 
	C791.453613,157.653244 799.600403,157.653244 807.843323,157.653244 
	C804.412537,146.044846 797.822937,143.310654 787.028748,149.463516 
z"/>
<path fill="#5A4AE3" opacity="1.000000" stroke="none" 
	d="
M672.763306,141.419968 
	C676.385254,148.338226 677.085693,155.446121 677.007141,162.716675 
	C676.958557,167.211655 677.169250,171.715988 676.948120,176.200546 
	C676.769592,179.820633 678.184143,181.832703 681.868286,182.294586 
	C681.868286,190.672043 681.868286,198.969284 681.868286,208.722412 
	C675.639832,208.813766 669.478210,209.100647 663.328064,208.942520 
	C656.288086,208.761551 653.267639,203.377258 650.870056,198.160400 
	C645.953003,201.285034 641.738770,204.850937 636.882446,206.880035 
	C623.159363,212.613907 604.981934,209.183502 597.720032,194.403534 
	C590.350952,179.405731 598.782837,163.222412 613.464478,157.979965 
	C623.975159,154.226883 634.596313,154.109894 645.269897,157.116745 
	C646.424133,151.790268 643.682800,147.293518 638.900146,146.027390 
	C632.268616,144.271805 625.967834,145.759857 619.864807,148.107269 
	C616.548279,149.382919 613.622253,151.659302 610.325806,153.009995 
	C609.215027,153.465134 606.683105,152.909424 606.208435,152.043747 
	C603.862671,147.765915 602.118774,143.163055 599.897278,138.810196 
	C598.659973,136.385757 598.893738,135.214767 601.443665,133.771622 
	C619.161011,123.744186 637.810181,122.415962 656.956177,128.142456 
	C663.640503,130.141693 668.822205,135.013641 672.763306,141.419968 
M642.470764,172.975327 
	C639.058350,172.662872 635.501038,171.602814 632.270447,172.228729 
	C628.305237,172.996933 624.430298,175.026718 624.020752,180.038742 
	C623.674377,184.278381 626.482239,186.092865 629.884338,187.410965 
	C633.873291,188.956467 644.280090,185.650558 645.418457,181.747528 
	C646.223206,178.988449 648.304260,174.854523 642.470764,172.975327 
z"/>
<path fill="#5A4AE3" opacity="1.000000" stroke="none" 
	d="
M535.000000,146.025452 
	C535.000000,142.561996 535.000000,139.590118 535.000000,136.079971 
	C538.393982,136.079971 541.452820,136.079971 544.457031,136.079971 
	C544.995178,129.165161 544.897278,122.677315 546.109497,116.444244 
	C548.712830,103.057831 559.569885,92.953445 573.943298,94.079788 
	C580.907227,94.625504 587.818176,95.934509 594.725891,97.064407 
	C597.347961,97.493294 598.527710,98.787918 597.617615,101.930984 
	C596.081604,107.235565 595.086426,112.704765 594.032471,118.137474 
	C593.526123,120.747467 592.479248,121.257652 589.904602,120.484634 
	C578.794189,117.148834 574.762085,118.025085 575.004822,132.525269 
	C575.021118,133.498978 575.096863,134.471680 575.162048,135.791260 
	C580.971558,135.791260 586.580566,135.791260 592.594543,135.791260 
	C592.594543,143.529297 592.594543,150.915314 592.594543,158.873749 
	C586.972412,158.873749 581.246277,158.873749 575.158875,158.873749 
	C575.158875,175.368637 575.158875,191.305450 575.158875,207.619537 
	C565.075684,207.619537 555.355957,207.619537 545.083618,207.619537 
	C545.083618,191.610138 545.083618,175.549088 545.083618,159.140167 
	C541.605652,159.140167 538.665222,159.140167 535.000000,159.140167 
	C535.000000,154.703964 535.000000,150.610489 535.000000,146.025452 
z"/>
<path fill="#5A4AE3" opacity="1.000000" stroke="none" 
	d="
M849.000366,147.000183 
	C849.000366,139.872513 849.000366,133.244781 849.000366,126.310928 
	C858.394043,126.310928 867.437378,126.310928 876.867493,126.310928 
	C876.867493,130.018417 876.867493,133.608490 876.867493,138.601700 
	C884.204102,128.601196 892.542542,123.125839 904.616821,125.371880 
	C904.616821,133.888107 904.616821,142.602966 904.616821,151.242889 
	C899.434326,152.135376 894.077393,152.632629 888.969421,154.035980 
	C881.049683,156.211792 880.004395,157.956879 880.004395,165.809296 
	C880.004395,179.612793 880.004395,193.416306 880.004395,207.608093 
	C869.778564,207.608093 859.738220,207.608093 849.000366,207.608093 
	C849.000366,187.624832 849.000366,167.562500 849.000366,147.000183 
z"/>
<path fill="#5A4AE3" opacity="1.000000" stroke="none" 
	d="
M722.000000,202.853455 
	C721.909302,204.779449 721.818665,206.221054 721.718933,207.807465 
	C711.791138,207.807465 702.195618,207.807465 692.300415,207.807465 
	C692.300415,180.579010 692.300415,153.539505 692.300415,126.249283 
	C701.399902,126.249283 710.328796,126.249283 719.714478,126.249283 
	C719.714478,129.797867 719.714478,133.377045 719.714478,138.250443 
	C727.395020,128.811401 735.420227,122.531921 747.661865,125.570694 
	C747.661865,134.001572 747.661865,142.720276 747.661865,151.122101 
	C742.262878,152.098145 736.982727,152.923920 731.761047,154.026596 
	C723.712158,155.726303 722.000183,157.914474 722.000061,165.890839 
	C721.999878,178.050247 722.000000,190.209641 722.000000,202.853455 
z"/>
<path fill="#5A4AE3" opacity="1.000000" stroke="none" 
	d="
M348.000000,248.000000 
	C347.999573,259.165375 347.955688,269.831085 348.029633,280.495941 
	C348.047791,283.114594 347.657867,284.834320 344.241272,283.550293 
	C344.241272,195.334534 344.241272,107.062248 344.241272,18.504112 
	C346.696350,17.476599 348.190491,17.791807 348.007965,21.027851 
	C347.942383,22.190624 347.999878,23.360298 347.999878,24.526823 
	C348.000031,98.851212 348.000000,173.175613 348.000000,248.000000 
z"/>
<path fill="#000000" opacity="1.000000" stroke="none" 
	d="
M249.345947,145.662567 
	C253.676590,171.296997 247.805206,194.348129 232.587692,214.528702 
	C218.641159,233.023804 200.084534,244.688599 176.848755,249.186462 
	C156.293945,253.165375 136.843689,250.514069 118.855186,240.767303 
	C92.308121,226.383194 75.577805,204.275162 70.976883,173.820602 
	C66.918282,146.955780 73.800171,123.187469 91.119080,102.382874 
	C106.245911,84.211540 125.637451,73.920959 149.078751,70.960449 
	C181.578369,66.855927 208.180862,78.458138 229.456116,102.274307 
	C240.205444,114.307442 247.288589,128.784271 249.345947,145.662567 
M170.919815,118.427597 
	C157.541489,115.104813 145.567032,117.768295 134.313919,125.850655 
	C113.492462,140.805313 111.105385,171.246811 128.104370,189.463654 
	C138.274033,200.361908 150.892914,205.029938 166.119980,203.164429 
	C176.464828,201.897034 185.176926,197.552917 191.862320,190.313812 
	C202.879684,178.383942 206.066666,163.948395 201.958084,148.047821 
	C198.471039,134.552658 184.114777,120.686317 170.919815,118.427597 
M214.305710,120.992134 
	C216.638611,118.734695 219.602844,116.840172 221.157578,114.135429 
	C223.536804,109.996338 221.543579,103.605080 217.907211,100.993347 
	C213.822342,98.059479 206.667191,98.199364 203.220383,101.280479 
	C199.083908,104.978058 197.844131,111.740387 200.525070,115.981758 
	C203.369431,120.481644 208.731796,122.561180 214.305710,120.992134 
z"/>
<path fill="#000000" opacity="1.000000" stroke="none" 
	d="
M787.307983,149.203903 
	C797.822937,143.310654 804.412537,146.044846 807.843323,157.653244 
	C799.600403,157.653244 791.453613,157.653244 782.138672,157.653244 
	C783.983643,154.563309 785.506165,152.013412 787.307983,149.203903 
z"/>
<path fill="#000000" opacity="1.000000" stroke="none" 
	d="
M642.907104,172.992981 
	C648.304260,174.854523 646.223206,178.988449 645.418457,181.747528 
	C644.280090,185.650558 633.873291,188.956467 629.884338,187.410965 
	C626.482239,186.092865 623.674377,184.278381 624.020752,180.038742 
	C624.430298,175.026718 628.305237,172.996933 632.270447,172.228729 
	C635.501038,171.602814 639.058350,172.662872 642.907104,172.992981 
z"/>
<path fill="#5A4AE3" opacity="1.000000" stroke="none" 
	d="
M171.268677,118.661758 
	C184.114777,120.686317 198.471039,134.552658 201.958084,148.047821 
	C206.066666,163.948395 202.879684,178.383942 191.862320,190.313812 
	C185.176926,197.552917 176.464828,201.897034 166.119980,203.164429 
	C150.892914,205.029938 138.274033,200.361908 128.104370,189.463654 
	C111.105385,171.246811 113.492462,140.805313 134.313919,125.850655 
	C145.567032,117.768295 157.541489,115.104813 171.268677,118.661758 
M136.460739,176.995239 
	C141.884613,185.977463 156.648865,192.089111 167.371445,188.681595 
	C184.903290,183.110153 192.074905,169.209778 188.412369,153.234711 
	C184.907135,137.945755 168.365311,127.510239 151.888611,132.463287 
	C135.335953,137.439163 124.270454,158.528336 136.460739,176.995239 
z"/>
<path fill="#5A4AE3" opacity="1.000000" stroke="none" 
	d="
M213.903107,121.002876 
	C208.731796,122.561180 203.369431,120.481644 200.525070,115.981758 
	C197.844131,111.740387 199.083908,104.978058 203.220383,101.280479 
	C206.667191,98.199364 213.822342,98.059479 217.907211,100.993347 
	C221.543579,103.605080 223.536804,109.996338 221.157578,114.135429 
	C219.602844,116.840172 216.638611,118.734695 213.903107,121.002876 
z"/>
<path fill="#000000" opacity="1.000000" stroke="none" 
	d="
M136.208160,176.716370 
	C124.270454,158.528336 135.335953,137.439163 151.888611,132.463287 
	C168.365311,127.510239 184.907135,137.945755 188.412369,153.234711 
	C192.074905,169.209778 184.903290,183.110153 167.371445,188.681595 
	C156.648865,192.089111 141.884613,185.977463 136.208160,176.716370 
z"/>
</svg>